<svg width="125" height="25" viewBox="0 0 125 25" fill="none" xmlns="http://www.w3.org/2000/svg">
<path d="M25 12.5C25 18.7385 20.4229 23.9104 14.4479 24.849V16.1375H17.3531L17.9062 12.5333H14.4479V10.1948C14.4479 9.20834 14.9312 8.24792 16.4792 8.24792H18.051V5.17917C18.051 5.17917 16.624 4.93542 15.2604 4.93542C12.4125 4.93542 10.5521 6.66146 10.5521 9.78542V12.5323H7.38646V16.1365H10.5521V24.8479C4.57812 23.9083 0 18.7375 0 12.5C0 5.59688 5.59687 0 12.5 0C19.4031 0 25 5.59584 25 12.5Z" fill="#B1B1B1"/>
<circle cx="62.1875" cy="12.5" r="12.5" fill="#B1B1B1"/>
<path d="M56.6261 9.70286H59.2799V18.2388H56.6261V9.70286ZM57.9531 5.45981C58.8013 5.45981 59.4906 6.14911 59.4906 6.99872C59.4906 7.84747 58.8013 8.53677 57.9531 8.53677C57.1029 8.53677 56.4156 7.84747 56.4156 6.99872C56.4156 6.14911 57.1029 5.45981 57.9531 5.45981Z" fill="white"/>
<path d="M60.9441 9.70331H63.4888V10.8705H63.5251C63.8793 10.1992 64.7449 9.49194 66.0352 9.49194C68.7217 9.49194 69.2176 11.2593 69.2176 13.5576V18.2392H66.5658V14.0882C66.5658 13.098 66.5486 11.8248 65.1872 11.8248C63.8066 11.8248 63.5959 12.904 63.5959 14.0171V18.2392H60.9441V9.70331Z" fill="white"/>
<path fill-rule="evenodd" clip-rule="evenodd" d="M111.746 0C104.916 0 99.3783 5.53757 99.3783 12.3675C99.3783 19.1975 104.916 24.7351 111.746 24.7351C118.576 24.7351 124.113 19.1975 124.113 12.3675C124.113 5.53757 118.576 0 111.746 0ZM117.478 8.41096C117.293 10.3661 116.487 15.1121 116.078 17.3022C115.904 18.2298 115.562 18.54 115.232 18.5699C114.514 18.6358 113.969 18.0947 113.273 17.6392C112.185 16.926 111.57 16.4818 110.513 15.7851C109.292 14.9802 110.083 14.538 110.779 13.8156C110.962 13.6259 114.126 10.7474 114.187 10.4866C114.195 10.4537 114.203 10.332 114.13 10.2681C114.057 10.2043 113.95 10.2259 113.874 10.2434C113.765 10.2682 112.026 11.4173 108.657 13.6909C108.163 14.0299 107.716 14.1948 107.315 14.1866C106.874 14.1773 106.025 13.9372 105.393 13.7311C104.619 13.4796 104.003 13.3456 104.056 12.9189C104.084 12.6963 104.39 12.4685 104.976 12.2356C108.581 10.6649 110.985 9.62916 112.188 9.12827C115.623 7.69982 116.336 7.45144 116.802 7.4432C117.385 7.43495 117.526 7.91626 117.478 8.41096Z" fill="#B1B1B1"/>
</svg>
