<?xml version="1.0" standalone="no"?>
<!DOCTYPE svg PUBLIC "-//W3C//DTD SVG 20010904//EN"
 "http://www.w3.org/TR/2001/REC-SVG-20010904/DTD/svg10.dtd">
<svg version="1.0" xmlns="http://www.w3.org/2000/svg"
 width="880.000000pt" height="880.000000pt" viewBox="0 0 880.000000 880.000000"
 preserveAspectRatio="xMidYMid meet">
<metadata>
Created by potrace 1.14, written by Peter Selinger 2001-2017
</metadata>
<g transform="translate(0.000000,880.000000) scale(0.100000,-0.100000)"
fill="#000000" stroke="none">
<path d="M70 5385 l0 -2435 4344 0 c4129 0 4344 1 4347 18 3 9 4 1104 4 2432
l-1 2415 -4347 3 -4347 2 0 -2435z m8491 2218 c1 -23 1 -4413 0 -4435 -1 -17
-205 -18 -4146 -18 l-4145 0 0 2235 0 2235 4145 0 c3941 0 4145 -1 4146 -17z"/>
<path d="M6968 7162 c-9 -15 -40 -65 -68 -112 -29 -47 -61 -100 -72 -119 -11
-19 -35 -59 -54 -88 -19 -29 -34 -58 -34 -63 0 -6 -4 -10 -10 -10 -5 0 -10 -4
-10 -10 0 -5 -13 -30 -30 -56 -29 -46 -30 -50 -24 -143 3 -53 7 -136 9 -186 5
-122 15 -298 20 -365 2 -30 7 -111 11 -180 3 -69 8 -147 9 -175 7 -108 17
-358 19 -513 l3 -163 -26 -13 c-30 -16 -218 -87 -241 -91 -8 -2 -42 -10 -75
-18 -69 -18 -83 -21 -185 -42 -41 -9 -86 -18 -100 -21 -14 -3 -47 -7 -75 -10
l-50 -6 -1 49 c-1 45 -10 190 -19 313 -3 30 -7 93 -10 140 -3 47 -7 108 -10
135 -2 28 -7 93 -10 145 -3 52 -8 118 -10 145 -14 199 -28 413 -39 590 -3 44
-8 105 -10 135 -3 30 -8 91 -10 135 -3 44 -9 118 -12 165 -3 47 -7 110 -8 140
-1 30 -6 57 -10 60 -4 3 -15 -8 -24 -25 -9 -16 -19 -32 -22 -35 -3 -3 -16 -25
-29 -50 -13 -25 -28 -50 -33 -57 -5 -7 -18 -27 -27 -45 -10 -18 -57 -100 -105
-182 l-86 -150 5 -80 c4 -45 8 -104 10 -132 1 -29 6 -85 9 -125 4 -41 9 -108
12 -149 8 -107 18 -231 29 -365 9 -108 17 -223 20 -275 2 -30 6 -80 9 -110 3
-30 7 -87 10 -126 l6 -71 -63 -26 c-50 -22 -196 -74 -217 -79 -3 0 -9 -2 -15
-4 -10 -3 -120 -27 -140 -30 -5 -1 -12 -3 -15 -4 -8 -3 -33 -8 -75 -14 -23 -4
-52 -8 -65 -11 -14 -3 -43 -7 -65 -10 -22 -3 -49 -7 -60 -9 -25 -4 -156 -21
-250 -31 -22 -2 -115 -7 -207 -9 l-167 -5 70 110 c38 60 69 113 69 116 0 4 6
14 14 22 41 48 104 203 113 276 13 112 -67 207 -197 233 -47 9 -282 9 -348 -1
-72 -10 -80 -15 -148 -94 -33 -38 -61 -70 -65 -73 -24 -22 -169 -209 -169
-218 0 -7 -4 -12 -10 -12 -5 0 -26 -34 -46 -75 -31 -64 -35 -79 -26 -102 17
-44 84 -294 80 -298 -1 -2 -19 -6 -38 -9 -19 -3 -46 -8 -60 -11 -14 -3 -45 -8
-70 -11 -25 -3 -52 -7 -60 -9 -8 -2 -30 -7 -47 -10 -18 -3 -48 -8 -65 -11 -18
-3 -46 -8 -63 -10 -16 -2 -43 -6 -60 -9 -16 -2 -30 -4 -30 -5 0 -5 -177 -31
-181 -27 -2 1 15 54 36 116 39 109 50 181 30 181 -5 0 -17 -17 -26 -37 -42
-91 -132 -179 -224 -220 -48 -21 -121 -44 -195 -59 -59 -13 -122 -26 -140 -29
-11 -2 -38 -6 -60 -10 -22 -3 -51 -8 -65 -10 -14 -2 -43 -6 -65 -10 -117 -17
-237 -28 -217 -19 6 3 10 9 8 12 -3 6 -9 75 -22 282 -2 30 -6 89 -9 130 -3 41
-7 113 -10 160 -2 47 -7 112 -9 145 -3 33 -8 103 -11 155 -4 52 -8 120 -10
150 -2 30 -7 102 -10 160 -11 215 -34 292 -106 362 -142 137 -371 33 -587
-267 -142 -198 -315 -521 -381 -710 -86 -251 -83 -367 13 -460 88 -86 185
-126 291 -119 133 7 311 97 419 211 l36 38 1 -30 c1 -51 9 -129 14 -142 2 -7
0 -13 -6 -13 -6 0 -7 -5 -3 -12 4 -6 8 -27 10 -47 1 -20 5 -79 8 -132 4 -52 9
-136 13 -185 3 -49 6 -139 7 -201 l1 -112 40 5 c22 3 65 9 95 14 30 4 58 6 62
3 5 -2 8 -1 8 4 0 4 12 8 28 9 41 1 108 12 244 39 67 14 132 27 143 29 34 6
178 47 223 63 23 9 45 13 48 10 4 -3 2 -20 -4 -36 -13 -38 -7 -42 44 -31 37 8
86 17 129 24 11 1 29 6 40 9 11 3 33 8 49 11 16 3 55 11 85 17 31 7 63 13 71
14 9 0 21 5 28 9 7 4 16 5 19 2 3 -3 13 -1 22 3 9 5 30 11 46 14 17 3 59 12
95 22 36 9 73 19 83 20 9 2 21 6 25 9 5 3 19 7 33 10 53 11 68 15 164 46 104
33 122 40 218 84 l59 27 31 -19 c57 -35 121 -50 241 -57 161 -10 356 -4 491
14 44 6 98 13 120 16 61 7 194 33 255 50 30 9 64 18 74 20 34 8 90 27 116 40
187 93 202 102 295 180 89 74 179 170 213 227 22 37 32 35 33 -4 0 -18 2 -49
4 -68 21 -217 27 -389 15 -429 -10 -37 -7 -38 75 -13 33 10 65 20 70 21 6 1
28 6 50 12 22 6 49 13 60 16 38 8 50 11 50 13 0 1 7 3 15 5 8 2 24 6 35 9 62
15 275 84 330 107 17 7 32 13 35 14 33 11 169 90 180 104 3 4 16 14 30 22 50
33 161 142 213 212 133 177 213 386 255 662 13 90 8 416 -13 785 -3 41 -7 127
-10 190 -2 63 -7 158 -10 210 -12 212 -25 460 -30 573 -1 37 -4 69 -6 72 -3 2
-12 -8 -21 -23z m-5502 -1735 c49 -25 78 -67 89 -128 13 -67 14 -85 14 -169 1
-124 2 -119 -42 -131 -51 -14 -181 -13 -208 1 -11 7 -23 9 -26 7 -2 -3 -26 5
-51 18 -126 65 -177 172 -118 249 40 53 152 149 188 163 41 15 115 10 154 -10z"/>
<path d="M7735 6824 c-39 -64 -74 -121 -80 -127 -5 -7 -19 -28 -29 -47 -11
-19 -36 -60 -55 -90 -20 -30 -34 -58 -33 -62 1 -5 -2 -8 -8 -8 -5 0 -10 -6
-10 -14 0 -8 -3 -16 -7 -18 -17 -7 -40 -65 -37 -93 3 -45 15 -223 19 -280 7
-116 17 -274 21 -325 2 -30 6 -95 9 -145 3 -49 7 -117 9 -150 3 -33 7 -107 11
-165 4 -58 8 -127 11 -155 2 -27 6 -90 9 -140 3 -49 7 -117 10 -150 3 -33 8
-109 11 -170 4 -60 8 -126 9 -145 2 -19 3 -45 4 -57 1 -13 5 -23 9 -23 7 0
141 212 186 294 6 11 15 25 19 30 4 6 33 51 63 100 l55 89 -5 106 c-3 58 -8
138 -11 176 -5 70 -11 163 -20 305 -7 117 -14 239 -20 310 -8 119 -16 234 -20
320 -3 47 -7 117 -10 155 -4 65 -11 160 -20 310 -14 237 -17 280 -19 282 -1 1
-33 -50 -71 -113z"/>
<path d="M5040 5818 c-24 -68 -50 -139 -58 -158 -9 -19 -16 -40 -18 -46 -1 -6
-42 -94 -91 -196 l-90 -185 -49 4 c-132 10 -144 9 -140 -7 3 -8 10 -41 16 -72
11 -54 25 -70 44 -50 4 4 176 7 383 7 l374 0 31 -57 c17 -32 35 -58 40 -58 5
0 29 11 53 26 l44 25 -18 40 c-10 22 -24 46 -30 52 -6 6 -11 15 -11 19 0 14
-141 236 -185 292 -16 21 -31 17 -84 -23 l-24 -19 29 -38 c26 -34 73 -102 97
-141 6 -10 -22 -12 -130 -8 -76 2 -180 5 -230 6 -51 0 -93 2 -93 4 0 1 38 80
84 176 46 96 100 217 120 269 20 52 41 103 46 112 6 10 10 24 10 32 0 9 9 23
19 33 11 10 17 23 13 29 -5 8 -95 54 -106 54 -1 0 -22 -55 -46 -122z"/>
<path d="M3142 5877 c-25 -27 -27 -33 -9 -52 6 -7 30 -35 52 -61 22 -26 49
-58 61 -70 l20 -23 27 25 c15 14 27 28 27 32 0 4 -18 27 -41 52 -22 25 -54 62
-72 83 -17 20 -34 37 -37 37 -4 0 -16 -10 -28 -23z"/>
<path d="M2529 5815 c-1 -8 -2 -18 -3 -22 -1 -5 -6 -26 -11 -48 -12 -57 -11
-55 -30 -110 -37 -108 -125 -274 -172 -323 -7 -7 -13 -17 -13 -21 0 -9 76 -81
85 -81 16 0 96 112 135 190 12 25 28 48 34 52 6 4 94 7 195 7 l183 -1 -5 -51
c-21 -188 -114 -373 -261 -517 -31 -29 -52 -56 -48 -60 5 -3 21 -22 36 -42 16
-21 34 -38 41 -38 16 0 121 111 179 190 81 109 156 283 171 393 3 23 8 51 10
62 2 11 4 30 4 43 1 22 3 22 145 22 l145 0 -2 63 -2 62 -368 0 c-202 0 -367 3
-367 6 0 3 9 39 19 80 24 94 31 139 23 141 -4 0 -18 2 -32 4 -14 1 -40 5 -57
8 -25 5 -33 3 -34 -9z"/>
<path d="M3834 5644 c-16 -20 -34 -42 -39 -48 -6 -6 -24 -29 -40 -51 -17 -22
-32 -42 -35 -45 -3 -3 -37 -45 -75 -95 -38 -49 -75 -97 -82 -105 -51 -62 -143
-184 -143 -190 0 -10 35 -40 46 -40 5 0 18 12 29 27 11 14 56 72 100 128 44
56 91 117 105 135 14 18 32 41 40 51 8 9 33 41 55 70 22 28 48 59 58 68 9 8
17 20 17 27 0 6 9 19 20 29 11 10 20 23 20 29 0 10 -34 46 -44 46 -2 0 -17
-16 -32 -36z"/>
<path d="M1375 2392 c-88 -8 -245 -61 -245 -83 0 -4 -9 -10 -19 -14 -24 -7
-108 -87 -148 -140 -39 -52 -77 -135 -94 -205 -13 -56 -20 -227 -10 -245 3 -5
6 -14 7 -20 15 -79 31 -120 76 -192 73 -115 214 -223 328 -250 169 -39 321
-13 461 80 98 65 94 51 94 278 0 109 -2 199 -5 200 -34 6 -143 2 -148 -6 -4
-5 -7 -82 -7 -170 -1 -162 -5 -185 -31 -185 -8 0 -14 -4 -14 -8 0 -4 -24 -17
-52 -27 -59 -21 -181 -27 -238 -12 -97 25 -193 94 -252 182 -82 123 -84 319
-5 448 78 126 192 196 332 201 116 5 214 -32 309 -117 20 -17 22 -16 78 40
l58 57 -28 24 c-114 99 -254 161 -377 165 -22 1 -53 1 -70 -1z"/>
<path d="M76 2381 c-2 -3 -4 -40 -5 -82 l-1 -75 122 -1 c68 -1 126 -2 130 -2
4 -1 7 -198 7 -438 0 -241 0 -463 1 -493 l0 -55 67 2 c38 1 74 2 80 2 10 1 13
110 15 493 l3 492 125 0 125 -1 -1 71 c-1 39 -2 76 -3 82 -1 11 -659 16 -665
5z"/>
<path d="M2697 2351 c-18 -42 -29 -72 -33 -86 -1 -5 -37 -107 -79 -225 -42
-118 -119 -336 -171 -485 -52 -148 -98 -277 -103 -285 -4 -8 -6 -19 -4 -25 3
-9 160 -13 166 -4 2 2 13 36 26 74 12 39 27 79 32 90 5 11 23 63 40 115 18 52
36 100 41 105 13 14 270 14 283 0 6 -6 11 -17 13 -25 4 -17 79 -235 92 -265 5
-11 14 -37 20 -57 6 -21 15 -38 18 -39 36 -4 146 -3 153 2 5 3 -2 36 -17 75
-14 38 -27 76 -29 84 -2 8 -16 47 -30 85 -15 39 -28 75 -30 80 -1 6 -5 17 -8
25 -3 8 -36 101 -73 205 -71 203 -147 420 -186 524 l-23 65 -42 1 c-39 1 -43
-1 -56 -34z m111 -473 l30 -77 -31 1 c-18 0 -51 -1 -74 -2 -22 -1 -46 1 -52 4
-10 7 -10 10 10 61 7 17 13 32 14 35 1 3 10 33 21 68 l19 62 16 -37 c9 -21 30
-73 47 -115z"/>
<path d="M5796 2381 c-2 -3 -3 -102 -2 -219 0 -116 -1 -212 -2 -212 -5 0 -65
42 -72 50 -7 8 -81 33 -110 37 -77 11 -169 -4 -235 -40 -48 -26 -134 -109
-162 -157 -120 -203 -35 -474 182 -581 114 -56 255 -46 356 26 l46 33 -4 -39
-5 -39 81 0 c70 0 81 2 82 18 1 21 1 1041 0 1094 l-1 36 -76 -1 c-41 0 -77 -3
-78 -6z m-131 -534 c85 -46 128 -117 127 -211 -1 -98 -15 -134 -71 -184 -53
-47 -93 -61 -173 -59 -66 2 -79 6 -118 35 -96 71 -130 172 -94 285 22 69 112
148 178 155 17 2 32 5 34 7 8 8 82 -10 117 -28z"/>
<path d="M3589 2025 c-129 -45 -246 -163 -276 -279 -12 -47 -11 -202 3 -233 7
-18 11 -33 9 -33 -11 0 63 -108 96 -141 104 -105 250 -145 382 -105 26 8 47
11 47 8 0 -4 4 -2 8 3 4 6 19 16 35 24 57 30 175 160 163 180 -3 5 -17 12 -30
15 -14 3 -38 11 -53 18 -54 22 -63 19 -111 -30 -88 -89 -206 -97 -307 -20 -78
60 -112 167 -84 265 19 70 97 146 167 162 93 23 175 -2 237 -70 32 -36 37 -38
62 -27 16 6 48 19 73 28 25 9 45 22 45 29 0 25 -105 138 -157 169 -83 47 -228
65 -309 37z"/>
<path d="M4500 2028 c-140 -36 -263 -162 -296 -305 -15 -63 -11 -164 9 -221
33 -95 115 -193 197 -237 70 -36 86 -40 179 -40 98 1 139 14 217 70 20 15 21
14 21 -7 1 -54 -1 -53 78 -53 41 0 76 2 76 5 1 3 2 171 3 373 l2 368 -81 -3
c-57 -2 -79 -7 -78 -15 4 -19 -4 -16 -50 16 -79 54 -185 73 -277 49z m171
-170 c97 -29 159 -124 154 -238 -8 -209 -227 -308 -383 -174 -43 37 -87 115
-78 139 3 8 2 15 -3 15 -13 0 -4 82 14 123 21 50 91 120 135 134 47 15 114 15
161 1z"/>
<path d="M6415 2023 c-75 -25 -124 -56 -178 -112 -85 -90 -116 -172 -112 -297
3 -88 4 -93 30 -149 10 -22 18 -43 17 -47 -1 -3 27 -36 61 -72 189 -197 479
-165 635 72 8 12 13 25 10 27 -3 3 -37 16 -77 30 l-72 26 -38 -40 c-21 -22
-56 -47 -77 -56 -37 -16 -126 -22 -169 -11 -11 2 -23 5 -27 5 -22 2 2 34 95
127 56 56 155 156 221 222 l118 121 -51 51 c-75 75 -160 112 -264 114 -46 1
-99 -4 -122 -11z m189 -161 c2 -4 -67 -80 -154 -170 -104 -106 -160 -157 -163
-148 -12 29 -1 152 16 186 46 92 124 140 228 140 37 0 70 -3 73 -8z"/>
<path d="M7273 2005 c-17 -7 -39 -23 -50 -34 -17 -19 -21 -20 -26 -7 -5 13
-23 16 -87 16 l-80 0 0 -370 c0 -345 1 -370 18 -371 9 -1 46 -1 82 -2 l65 0 1
249 c1 259 7 336 27 352 24 18 61 21 93 6 36 -17 44 -43 43 -149 0 -33 1 -64
2 -70 1 -5 1 -13 1 -16 -1 -10 -2 -93 -1 -109 0 -8 0 -53 -1 -100 -1 -47 -1
-89 0 -95 1 -5 1 -22 0 -37 -1 -21 3 -28 17 -29 21 -1 135 -1 144 0 3 1 6 112
6 249 1 289 4 319 39 350 32 28 93 20 111 -16 4 -9 10 -145 13 -301 l5 -285
63 1 c34 1 70 2 81 2 17 1 18 16 17 329 -1 321 -2 328 -24 372 -31 60 -76 81
-165 76 -72 -4 -115 -23 -146 -62 -23 -29 -23 -29 -40 4 -6 12 -23 29 -37 39
-31 20 -130 25 -171 8z"/>
<path d="M8047 1883 c25 -54 60 -129 78 -168 18 -38 49 -106 70 -150 20 -44
45 -98 55 -119 11 -22 18 -42 16 -45 -12 -21 -80 -168 -82 -176 -1 -5 -25 -58
-53 -117 -28 -58 -51 -109 -51 -112 0 -2 39 -4 88 -3 48 1 86 5 85 9 -1 4 12
36 29 70 18 35 33 65 33 68 1 5 9 22 115 245 34 72 74 157 90 190 15 33 52
110 80 170 50 105 85 180 102 218 7 15 -1 17 -82 17 l-90 0 -19 -42 c-11 -24
-35 -77 -53 -118 -19 -41 -47 -104 -63 -140 -16 -36 -31 -68 -35 -73 -4 -4
-33 50 -65 120 -32 71 -71 156 -87 191 l-29 62 -89 0 -89 0 46 -97z"/>
</g>
</svg>
