<svg width="119" height="42" viewBox="0 0 119 42" fill="none" xmlns="http://www.w3.org/2000/svg">
<path d="M110.994 41.9556H7.35243C3.28903 41.9556 0 38.6666 0 34.6032V7.64149C0 3.57808 3.28903 0.289062 7.35243 0.289062H110.994C115.058 0.289062 118.347 3.57808 118.347 7.64149V34.6032C118.347 38.6666 115.049 41.9556 110.994 41.9556Z" fill="black"/>
<path d="M11.3076 17.1589C8.77631 21.5553 10.3834 28.2333 13.1894 32.2801C14.5883 34.3034 16.0038 36.1186 17.944 36.1186C17.9773 36.1186 18.0189 36.1186 18.0522 36.1186C18.9598 36.0853 19.6259 35.8022 20.2588 35.5275C20.9749 35.2194 21.7159 34.9113 22.8733 34.9113C23.9808 34.9113 24.6802 35.2194 25.363 35.5108C26.0375 35.8022 26.7286 36.102 27.7444 36.0853C29.9343 36.0437 31.2749 34.0869 32.4573 32.355C33.6896 30.5481 34.3141 28.7995 34.5223 28.1251L34.5306 28.1001C34.5723 27.9835 34.514 27.8503 34.3974 27.8003L34.3808 27.792C33.9977 27.6338 30.6171 26.135 30.5838 22.0549C30.5505 18.7409 33.1151 16.984 33.6314 16.6676L33.6563 16.6509C33.7146 16.6176 33.7479 16.5593 33.7646 16.4927C33.7812 16.4261 33.7646 16.3595 33.723 16.3012C31.9494 13.7116 29.2349 13.3203 28.1441 13.2703C27.9859 13.2537 27.8194 13.2453 27.6612 13.2453C26.3789 13.2453 25.1465 13.7283 24.164 14.1196C23.4812 14.3861 22.89 14.6192 22.4903 14.6192C22.0323 14.6192 21.4411 14.3861 20.7584 14.1113C19.8424 13.7449 18.8016 13.3369 17.7025 13.3369C17.6775 13.3369 17.6525 13.3369 17.6275 13.3369C15.0629 13.3702 12.6482 14.8357 11.3076 17.1589Z" fill="white"/>
<path d="M28.1608 6.13437C26.612 6.20098 24.7552 7.15022 23.6394 8.4575C22.6985 9.54829 21.7742 11.3718 22.0157 13.212C22.0324 13.3286 22.124 13.4119 22.2405 13.4285C22.3488 13.4368 22.4487 13.4368 22.5569 13.4368C24.0724 13.4368 25.7044 12.5958 26.8202 11.2469C27.9942 9.82307 28.5854 7.99121 28.4106 6.35086C28.4022 6.22596 28.2857 6.12604 28.1608 6.13437Z" fill="white"/>
<path d="M42.5823 10.0062C43.0736 9.93131 43.6481 9.87302 44.2893 9.87302C45.4467 9.87302 46.2627 10.1395 46.8123 10.6474C47.3618 11.1553 47.6866 11.8714 47.6866 12.8789C47.6866 13.8948 47.3702 14.7275 46.7956 15.2937C46.2128 15.8765 45.2552 16.1846 44.0478 16.1846C43.4733 16.1846 42.9987 16.1596 42.5907 16.1097V10.0062H42.5823ZM43.3817 15.5102C43.5815 15.5435 43.8813 15.5518 44.1977 15.5518C45.913 15.5518 46.8456 14.5942 46.8456 12.9122C46.8539 11.4468 46.0212 10.5142 44.3226 10.5142C43.9063 10.5142 43.5982 10.5475 43.3817 10.5974V15.5102Z" fill="white"/>
<path d="M52.7658 13.8781C52.7658 15.5268 51.6167 16.2512 50.5426 16.2512C49.3352 16.2512 48.4026 15.3686 48.4026 13.9531C48.4026 12.4543 49.3852 11.58 50.6175 11.58C51.8915 11.58 52.7658 12.5042 52.7658 13.8781ZM49.2187 13.9198C49.2187 14.9023 49.7765 15.6351 50.5759 15.6351C51.3503 15.6351 51.9331 14.9106 51.9331 13.9031C51.9331 13.1454 51.5584 12.1878 50.5926 12.1878C49.635 12.1878 49.2187 13.0705 49.2187 13.9198Z" fill="white"/>
<path d="M54.0314 11.6799L54.6226 13.9448C54.7559 14.4444 54.8724 14.9023 54.9557 15.3603H54.9807C55.0806 14.9106 55.2305 14.4277 55.3804 13.9531L56.1048 11.6799H56.7876L57.4787 13.9114C57.6452 14.4443 57.7784 14.919 57.8784 15.3686H57.9033C57.9783 14.919 58.0949 14.4443 58.2447 13.9198L58.8776 11.6799H59.6769L58.2364 16.143H57.4953L56.8126 14.0114C56.6543 13.5118 56.5294 13.0705 56.4129 12.5459H56.3962C56.288 13.0788 56.1464 13.5451 55.9882 14.0197L55.2721 16.143H54.531L53.1821 11.6799H54.0314Z" fill="white"/>
<path d="M60.4846 12.8873C60.4846 12.4293 60.4763 12.0463 60.4513 11.6799H61.1674L61.2173 12.4126H61.234C61.4505 11.988 61.9667 11.5717 62.7078 11.5717C63.324 11.5717 64.2816 11.9464 64.2816 13.4701V16.1347H63.4655V13.5617C63.4655 12.8456 63.1991 12.2461 62.433 12.2461C61.9001 12.2461 61.4838 12.6208 61.3422 13.0788C61.3089 13.1787 61.284 13.3203 61.284 13.4535V16.1347H60.468V12.8873H60.4846Z" fill="white"/>
<path d="M65.5972 9.5899H66.4132V16.143H65.5972V9.5899Z" fill="white"/>
<path d="M71.8089 13.8781C71.8089 15.5268 70.6598 16.2512 69.5857 16.2512C68.3783 16.2512 67.4457 15.3686 67.4457 13.9531C67.4457 12.4543 68.4283 11.58 69.6606 11.58C70.9429 11.58 71.8089 12.5042 71.8089 13.8781ZM68.2701 13.9198C68.2701 14.9023 68.828 15.6351 69.6273 15.6351C70.4017 15.6351 70.9846 14.9106 70.9846 13.9031C70.9846 13.1454 70.6099 12.1878 69.644 12.1878C68.6864 12.1878 68.2701 13.0705 68.2701 13.9198Z" fill="white"/>
<path d="M75.2978 16.143L75.2312 15.5768H75.2062C74.9564 15.9265 74.4818 16.2429 73.8406 16.2429C72.933 16.2429 72.475 15.6101 72.475 14.9606C72.475 13.8781 73.4326 13.2869 75.1562 13.3036V13.212C75.1562 12.8456 75.0563 12.1795 74.1404 12.1795C73.724 12.1795 73.291 12.3044 72.9746 12.5126L72.7914 11.9797C73.1578 11.7382 73.6907 11.58 74.2569 11.58C75.6225 11.58 75.9556 12.5126 75.9556 13.4035V15.0772C75.9556 15.4602 75.9722 15.8432 76.0305 16.143H75.2978ZM75.1812 13.8615C74.2902 13.8448 73.291 14.003 73.291 14.869C73.291 15.3936 73.6408 15.6434 74.0571 15.6434C74.64 15.6434 75.0063 15.2687 75.1312 14.894C75.1562 14.8107 75.1812 14.7191 75.1812 14.6359V13.8615Z" fill="white"/>
<path d="M81.118 9.5899V14.9856C81.118 15.3853 81.1263 15.8349 81.1513 16.143H80.4269L80.3936 15.3686H80.3769C80.1271 15.8682 79.5859 16.2429 78.8532 16.2429C77.7707 16.2429 76.938 15.327 76.938 13.978C76.9297 12.4959 77.854 11.58 78.9448 11.58C79.6275 11.58 80.0855 11.9047 80.2937 12.2628H80.3103V9.59823H81.118V9.5899ZM80.3103 13.4951C80.3103 13.3952 80.302 13.2536 80.277 13.1537C80.1605 12.6375 79.7191 12.2128 79.103 12.2128C78.262 12.2128 77.7624 12.9455 77.7624 13.9364C77.7624 14.844 78.2037 15.5851 79.078 15.5851C79.6192 15.5851 80.1188 15.227 80.2687 14.6192C80.2937 14.511 80.302 14.3944 80.302 14.2695V13.4951H80.3103Z" fill="white"/>
<path d="M88.4455 13.8781C88.4455 15.5268 87.2964 16.2512 86.2223 16.2512C85.0149 16.2512 84.0823 15.3686 84.0823 13.9531C84.0823 12.4543 85.0649 11.58 86.2972 11.58C87.5795 11.58 88.4455 12.5042 88.4455 13.8781ZM84.9067 13.9198C84.9067 14.9023 85.4646 15.6351 86.2639 15.6351C87.0383 15.6351 87.6212 14.9106 87.6212 13.9031C87.6212 13.1454 87.2465 12.1878 86.2806 12.1878C85.323 12.1878 84.9067 13.0705 84.9067 13.9198Z" fill="white"/>
<path d="M89.4614 12.8873C89.4614 12.4293 89.4531 12.0463 89.4281 11.6799H90.1442L90.1942 12.4126H90.2108C90.4273 11.988 90.9436 11.5717 91.6846 11.5717C92.3008 11.5717 93.2584 11.9464 93.2584 13.4701V16.1347H92.4423V13.5617C92.4423 12.8456 92.1759 12.2461 91.4098 12.2461C90.8769 12.2461 90.4606 12.6208 90.3191 13.0788C90.2857 13.1787 90.2608 13.3203 90.2608 13.4535V16.1347H89.4448V12.8873H89.4614Z" fill="white"/>
<path d="M97.505 10.3976V11.6799H98.6707V12.2961H97.505V14.7025C97.505 15.2603 97.6632 15.5684 98.1128 15.5684C98.321 15.5684 98.4792 15.5435 98.5791 15.5101L98.6124 16.118C98.4542 16.1846 98.2044 16.2262 97.8964 16.2262C97.5217 16.2262 97.2136 16.1097 97.0221 15.8848C96.7889 15.6434 96.7056 15.252 96.7056 14.7191V12.2794H96.0145V11.6632H96.7056V10.6057L97.505 10.3976Z" fill="white"/>
<path d="M99.57 9.5899H100.386V12.371H100.403C100.536 12.1379 100.736 11.938 100.986 11.7965C101.227 11.6549 101.51 11.5633 101.818 11.5633C102.418 11.5633 103.375 11.938 103.375 13.4701V16.1263H102.559V13.5617C102.559 12.8456 102.293 12.2378 101.527 12.2378C101.002 12.2378 100.586 12.6042 100.436 13.0455C100.386 13.1537 100.378 13.2786 100.378 13.4368V16.1263H99.5616V9.5899H99.57Z" fill="white"/>
<path d="M105.132 14.0613C105.149 15.1604 105.848 15.6101 106.664 15.6101C107.247 15.6101 107.597 15.5102 107.897 15.3769L108.038 15.9598C107.755 16.093 107.264 16.2346 106.556 16.2346C105.182 16.2346 104.358 15.327 104.358 13.9864C104.358 12.6375 105.149 11.58 106.448 11.58C107.905 11.58 108.296 12.8623 108.296 13.6866C108.296 13.8532 108.28 13.9781 108.271 14.0613H105.132ZM107.514 13.4785C107.522 12.9622 107.305 12.1628 106.389 12.1628C105.565 12.1628 105.207 12.9206 105.149 13.4785H107.514Z" fill="white"/>
<path d="M44.8888 28.0251L43.7647 31.439H42.3159L46.0046 20.5894H47.6949L51.3919 31.439H49.8931L48.7357 28.0251H44.8888ZM48.4443 26.926L47.3868 23.8035C47.1453 23.0957 46.9871 22.4546 46.8206 21.8218H46.7873C46.6291 22.4629 46.4459 23.129 46.2377 23.7869L45.1802 26.926H48.4443Z" fill="white"/>
<path d="M52.8907 26.1932C52.8907 25.194 52.8574 24.3864 52.8241 23.6453H54.0981L54.1647 24.9859H54.198C54.7809 24.0366 55.6968 23.4704 56.9624 23.4704C58.8443 23.4704 60.2598 25.0608 60.2598 27.4339C60.2598 30.2317 58.5528 31.6139 56.721 31.6139C55.6885 31.6139 54.7892 31.1643 54.3229 30.3899H54.2896V34.6198H52.8907V26.1932ZM54.2896 28.2666C54.2896 28.4747 54.3229 28.6663 54.3562 28.8411C54.6143 29.8237 55.4636 30.4981 56.4795 30.4981C57.9783 30.4981 58.8443 29.2741 58.8443 27.4922C58.8443 25.9268 58.0199 24.5945 56.5211 24.5945C55.5552 24.5945 54.656 25.2856 54.3812 26.3431C54.3312 26.518 54.2813 26.7262 54.2813 26.926V28.2666H54.2896Z" fill="white"/>
<path d="M62.05 26.1932C62.05 25.194 62.0167 24.3864 61.9834 23.6453H63.2574L63.324 24.9859H63.3573C63.9402 24.0366 64.8561 23.4704 66.1217 23.4704C68.0036 23.4704 69.4191 25.0608 69.4191 27.4339C69.4191 30.2317 67.7121 31.6139 65.8803 31.6139C64.8478 31.6139 63.9485 31.1643 63.4822 30.3899H63.4489V34.6198H62.05V26.1932ZM63.4489 28.2666C63.4489 28.4747 63.4822 28.6663 63.5155 28.8411C63.7736 29.8237 64.6229 30.4981 65.6388 30.4981C67.1376 30.4981 68.0036 29.2741 68.0036 27.4922C68.0036 25.9268 67.1792 24.5945 65.6804 24.5945C64.7145 24.5945 63.8153 25.2856 63.5405 26.3431C63.4905 26.518 63.4406 26.7262 63.4406 26.926V28.2666H63.4489Z" fill="white"/>
<path d="M74.4817 29.7321C75.1062 30.1151 76.0221 30.4398 76.988 30.4398C78.4202 30.4398 79.2529 29.6821 79.2529 28.5913C79.2529 27.5755 78.67 27.0009 77.2129 26.4347C75.4476 25.8102 74.3485 24.886 74.3485 23.3622C74.3485 21.6719 75.7474 20.4146 77.854 20.4146C78.9698 20.4146 79.7691 20.6727 80.2521 20.9475L79.869 22.0882C79.511 21.8967 78.7949 21.572 77.8124 21.572C76.3302 21.572 75.7723 22.4546 75.7723 23.1956C75.7723 24.2115 76.4301 24.7111 77.9289 25.2856C79.7608 25.9934 80.6934 26.876 80.6934 28.4747C80.6934 30.1484 79.4527 31.5972 76.8964 31.5972C75.8473 31.5972 74.7065 31.2892 74.1237 30.9061L74.4817 29.7321Z" fill="white"/>
<path d="M84.2239 21.4054V23.6453H86.2556V24.7194H84.2239V28.9244C84.2239 29.8903 84.4986 30.4398 85.2813 30.4398C85.656 30.4398 85.9225 30.3899 86.1057 30.3482L86.1723 31.4057C85.8975 31.514 85.4645 31.5972 84.915 31.5972C84.2572 31.5972 83.7243 31.3891 83.3912 30.9977C82.9915 30.5814 82.8416 29.882 82.8416 28.966V24.7194H81.6343V23.6453H82.8416V21.7801L84.2239 21.4054Z" fill="white"/>
<path d="M94.7988 27.4756C94.7988 30.3566 92.8004 31.6139 90.9186 31.6139C88.8119 31.6139 87.1882 30.0651 87.1882 27.6088C87.1882 25.0025 88.8952 23.4704 91.0518 23.4704C93.2917 23.4704 94.7988 25.0941 94.7988 27.4756ZM88.6204 27.5588C88.6204 29.2658 89.603 30.5564 90.9852 30.5564C92.3341 30.5564 93.35 29.2824 93.35 27.5338C93.35 26.2182 92.6921 24.5362 91.0185 24.5362C89.3448 24.5279 88.6204 26.0767 88.6204 27.5588Z" fill="white"/>
<path d="M96.589 26.0767C96.589 25.1607 96.5723 24.3697 96.5223 23.6453H97.763L97.813 25.1774H97.8796C98.2376 24.1282 99.0869 23.4704 100.036 23.4704C100.194 23.4704 100.311 23.4871 100.436 23.5204V24.8527C100.294 24.8193 100.144 24.8027 99.9529 24.8027C98.9537 24.8027 98.246 25.5604 98.0544 26.6179C98.0211 26.8094 97.9878 27.0342 97.9878 27.2757V31.4307H96.589V26.0767Z" fill="white"/>
<path d="M102.484 27.8003C102.518 29.7154 103.742 30.5065 105.149 30.5065C106.165 30.5065 106.772 30.3316 107.305 30.1068L107.547 31.1143C107.047 31.3391 106.198 31.5973 104.957 31.5973C102.559 31.5973 101.127 30.0235 101.127 27.6671C101.127 25.319 102.509 23.4621 104.782 23.4621C107.322 23.4621 107.997 25.702 107.997 27.1342C107.997 27.4256 107.963 27.6504 107.947 27.792H102.484V27.8003ZM106.639 26.7845C106.656 25.8852 106.265 24.4863 104.674 24.4863C103.242 24.4863 102.617 25.8102 102.501 26.7845H106.639Z" fill="white"/>
</svg>
