<svg width="119" height="42" viewBox="0 0 119 42" fill="none" xmlns="http://www.w3.org/2000/svg">
<path d="M111.647 41.9556H8.00478C3.94137 41.9556 0.652344 38.6583 0.652344 34.6032V7.6415C0.652344 3.57809 3.94137 0.289062 8.00478 0.289062H111.647C115.71 0.289062 118.999 3.57809 118.999 7.6415V34.6032C118.999 38.6583 115.702 41.9556 111.647 41.9556Z" fill="black"/>
<path d="M40.8035 12.2378L40.204 14.0697H39.4296L41.4114 8.24103H42.319L44.309 14.0697H43.5097L42.8852 12.2378H40.8035ZM42.7187 11.655L42.1441 9.97297C42.0109 9.58995 41.9276 9.24855 41.8444 8.90716H41.8277C41.7444 9.25688 41.6445 9.6066 41.5363 9.96464L40.9701 11.655H42.7187Z" fill="white"/>
<path d="M45.2416 9.88971L46.0659 12.2462C46.2075 12.6209 46.3157 12.9706 46.399 13.3203H46.424C46.5156 12.9706 46.6405 12.6292 46.782 12.2462L47.598 9.88971H48.3891L46.7487 14.078H46.0243L44.4339 9.88971H45.2416Z" fill="white"/>
<path d="M51.3949 14.0697L51.3367 13.5451H51.3117C51.0785 13.8698 50.6289 14.1696 50.0294 14.1696C49.1801 14.1696 48.7471 13.5701 48.7471 12.9705C48.7471 11.963 49.6463 11.4051 51.2617 11.4135V11.3302C51.2617 10.9805 51.1701 10.3643 50.3125 10.3643C49.9211 10.3643 49.5215 10.4892 49.2217 10.6724L49.0468 10.1728C49.3882 9.94798 49.8961 9.7981 50.4207 9.7981C51.703 9.7981 52.0111 10.6724 52.0111 11.5051V13.0705C52.0111 13.4368 52.0278 13.7866 52.0777 14.078H51.3949V14.0697ZM51.2784 11.938C50.4457 11.9214 49.5048 12.0713 49.5048 12.879C49.5048 13.3702 49.8295 13.6034 50.2209 13.6034C50.7621 13.6034 51.1118 13.2537 51.2284 12.9039C51.2534 12.829 51.27 12.7374 51.27 12.6625V11.938H51.2784Z" fill="white"/>
<path d="M54.0928 8.70732C54.1012 8.96544 53.9096 9.17361 53.6099 9.17361C53.3434 9.17361 53.1519 8.96544 53.1519 8.70732C53.1519 8.44086 53.3518 8.2327 53.6265 8.2327C53.918 8.24102 54.0928 8.44086 54.0928 8.70732ZM53.2435 14.0697V9.88137H54.0096V14.0697H53.2435Z" fill="white"/>
<path d="M55.2669 7.93295H56.033V14.0697H55.2669V7.93295Z" fill="white"/>
<path d="M59.63 14.0697L59.5717 13.5451H59.5467C59.3136 13.8698 58.8639 14.1696 58.2644 14.1696C57.4151 14.1696 56.9821 13.5701 56.9821 12.9705C56.9821 11.963 57.8814 11.4051 59.4968 11.4135V11.3302C59.4968 10.9805 59.4052 10.3643 58.5475 10.3643C58.1562 10.3643 57.7565 10.4892 57.4567 10.6724L57.2819 10.1728C57.6233 9.94798 58.1312 9.7981 58.6558 9.7981C59.9381 9.7981 60.2462 10.6724 60.2462 11.5051V13.0705C60.2462 13.4368 60.2628 13.7866 60.3128 14.078H59.63V14.0697ZM59.5217 11.938C58.6891 11.9214 57.7482 12.0713 57.7482 12.879C57.7482 13.3702 58.0729 13.6034 58.4643 13.6034C59.0055 13.6034 59.3552 13.2537 59.4718 12.9039C59.4968 12.829 59.5134 12.7374 59.5134 12.6625V11.938H59.5217Z" fill="white"/>
<path d="M61.4453 14.0697C61.462 13.7866 61.4786 13.3619 61.4786 12.9872V7.93295H62.2363V10.5642H62.253C62.5195 10.0979 63.0024 9.79812 63.6769 9.79812C64.7177 9.79812 65.4504 10.6641 65.4421 11.9297C65.4421 13.4285 64.5012 14.1696 63.5686 14.1696C62.9691 14.1696 62.4778 13.9365 62.1697 13.3869H62.1447L62.1114 14.078H61.4453V14.0697ZM62.2363 12.396C62.2363 12.4876 62.253 12.5876 62.2696 12.6708C62.4112 13.1954 62.8608 13.5618 63.4104 13.5618C64.2014 13.5618 64.6844 12.9123 64.6844 11.9547C64.6844 11.1137 64.2514 10.3976 63.4354 10.3976C62.9191 10.3976 62.4362 10.7557 62.278 11.3302C62.2613 11.4135 62.2363 11.5217 62.2363 11.6383V12.396Z" fill="white"/>
<path d="M66.408 7.93295H67.174V14.0697H66.408V7.93295Z" fill="white"/>
<path d="M68.8726 12.1212C68.8893 13.1537 69.5471 13.5784 70.3048 13.5784C70.846 13.5784 71.1791 13.4868 71.4622 13.3619L71.5954 13.9031C71.329 14.0197 70.871 14.1613 70.2049 14.1613C68.9142 14.1613 68.1482 13.3119 68.1482 12.0546C68.1482 10.7973 68.8893 9.7981 70.1133 9.7981C71.4789 9.7981 71.8452 10.9971 71.8452 11.7715C71.8452 11.9297 71.8286 12.0463 71.8202 12.1296H68.8726V12.1212ZM71.1042 11.5717C71.1125 11.0887 70.9043 10.3393 70.0467 10.3393C69.2723 10.3393 68.9392 11.0471 68.8809 11.5717H71.1042Z" fill="white"/>
<path d="M78.4067 11.9464C78.4067 13.4952 77.3325 14.1696 76.325 14.1696C75.1926 14.1696 74.3183 13.337 74.3183 12.0213C74.3183 10.6225 75.2342 9.79812 76.3916 9.79812C77.5907 9.7898 78.4067 10.6641 78.4067 11.9464ZM75.0843 11.988C75.0843 12.904 75.6089 13.5951 76.3583 13.5951C77.0827 13.5951 77.6323 12.9123 77.6323 11.9714C77.6323 11.2636 77.2743 10.3643 76.375 10.3643C75.4757 10.3643 75.0843 11.197 75.0843 11.988Z" fill="white"/>
<path d="M79.3642 11.0221C79.3642 10.5891 79.3559 10.2394 79.3309 9.88969H80.0054L80.047 10.5808H80.0637C80.2718 10.1811 80.7548 9.7981 81.4459 9.7981C82.0288 9.7981 82.928 10.1395 82.928 11.58V14.078H82.1703V11.6633C82.1703 10.9888 81.9205 10.4309 81.2044 10.4309C80.7048 10.4309 80.3135 10.789 80.1803 11.2053C80.1469 11.2969 80.1303 11.4301 80.1303 11.5633V14.078H79.3642V11.0221Z" fill="white"/>
<path d="M86.9248 8.69067V9.88971H88.0156V10.4726H86.9248V12.7291C86.9248 13.2454 87.0664 13.5451 87.491 13.5451C87.6909 13.5451 87.8407 13.5201 87.9323 13.4952L87.9656 14.0614C87.8158 14.1197 87.5826 14.1696 87.2912 14.1696C86.9331 14.1696 86.65 14.053 86.4668 13.8532C86.2504 13.6284 86.1754 13.2537 86.1754 12.7624V10.4809H85.5259V9.89804H86.1754V8.89884L86.9248 8.69067Z" fill="white"/>
<path d="M88.8649 7.93295H89.6309V10.5475H89.6476C89.7725 10.331 89.964 10.1395 90.1888 10.0063C90.4136 9.87306 90.6801 9.7898 90.9632 9.7898C91.5211 9.7898 92.4287 10.1312 92.4287 11.58V14.0697H91.6627V11.6633C91.6627 10.9888 91.4128 10.4226 90.6968 10.4226C90.2055 10.4226 89.8141 10.7723 89.6726 11.1803C89.6309 11.2803 89.6226 11.3968 89.6226 11.5467V14.0697H88.8566V7.93295H88.8649Z" fill="white"/>
<path d="M94.0941 12.1212C94.1108 13.1537 94.7686 13.5784 95.5263 13.5784C96.0675 13.5784 96.4006 13.4868 96.6837 13.3619L96.8169 13.9031C96.5505 14.0197 96.0925 14.1613 95.4264 14.1613C94.1357 14.1613 93.3697 13.3119 93.3697 12.0546C93.3697 10.7973 94.1108 9.7981 95.3348 9.7981C96.7004 9.7981 97.0667 10.9971 97.0667 11.7715C97.0667 11.9297 97.0501 12.0463 97.0417 12.1296H94.0941V12.1212ZM96.3257 11.5717C96.334 11.0887 96.1258 10.3393 95.2682 10.3393C94.4938 10.3393 94.1607 11.0471 94.1024 11.5717H96.3257Z" fill="white"/>
<path d="M47.7061 29.424C47.1399 29.6239 46.0325 29.9569 44.7169 29.9569C43.2431 29.9569 42.0357 29.5822 41.0781 28.6746C40.2455 27.8669 39.7209 26.568 39.7209 25.0525C39.7375 22.1549 41.7276 20.0316 44.9917 20.0316C46.1158 20.0316 46.9984 20.2814 47.4147 20.4812L47.1066 21.5054C46.5904 21.2722 45.9409 21.0807 44.9584 21.0807C42.5853 21.0807 41.0448 22.5545 41.0448 24.9942C41.0448 27.4673 42.5353 28.9244 44.8001 28.9244C45.6245 28.9244 46.1824 28.8078 46.4738 28.6663V25.7686H44.4921V24.7611H47.6978V29.424H47.7061Z" fill="white"/>
<path d="M55.9911 26.3099C55.9911 28.8911 54.2009 30.0152 52.5106 30.0152C50.6204 30.0152 49.1633 28.6247 49.1633 26.4181C49.1633 24.0783 50.6954 22.7127 52.6272 22.7127C54.6339 22.7127 55.9911 24.1699 55.9911 26.3099ZM50.4456 26.3765C50.4456 27.9086 51.3282 29.0576 52.5689 29.0576C53.7846 29.0576 54.6922 27.9169 54.6922 26.3432C54.6922 25.1608 54.101 23.662 52.6022 23.662C51.1034 23.662 50.4456 25.0442 50.4456 26.3765Z" fill="white"/>
<path d="M63.9265 26.3099C63.9265 28.8911 62.1363 30.0152 60.4459 30.0152C58.5558 30.0152 57.0986 28.6247 57.0986 26.4181C57.0986 24.0783 58.6307 22.7127 60.5625 22.7127C62.5692 22.7127 63.9265 24.1699 63.9265 26.3099ZM58.3809 26.3765C58.3809 27.9086 59.2636 29.0576 60.5042 29.0576C61.7199 29.0576 62.6275 27.9169 62.6275 26.3432C62.6275 25.1608 62.0363 23.662 60.5375 23.662C59.0387 23.662 58.3809 25.0442 58.3809 26.3765Z" fill="white"/>
<path d="M71.5537 22.871C71.5287 23.3789 71.4954 23.9368 71.4954 24.7944V28.8495C71.4954 30.4565 71.179 31.4308 70.4962 32.0386C69.8217 32.6714 68.8392 32.8796 67.9566 32.8796C67.1239 32.8796 66.1996 32.6797 65.6334 32.305L65.9498 31.3392C66.4161 31.6306 67.1322 31.8887 67.9982 31.8887C69.2971 31.8887 70.2464 31.2143 70.2464 29.449V28.6663H70.2214C69.8301 29.3158 69.0807 29.8404 67.9982 29.8404C66.2662 29.8404 65.0256 28.3665 65.0256 26.4348C65.0256 24.07 66.5743 22.7294 68.173 22.7294C69.3887 22.7294 70.0465 23.3622 70.3546 23.9451H70.3796L70.4379 22.8876H71.5537V22.871ZM70.2381 25.6271C70.2381 25.4106 70.2214 25.2274 70.1631 25.0525C69.93 24.3198 69.3138 23.7119 68.3895 23.7119C67.1739 23.7119 66.3079 24.7361 66.3079 26.3515C66.3079 27.7254 66.999 28.8661 68.3729 28.8661C69.1556 28.8661 69.8634 28.3749 70.1381 27.5672C70.2131 27.3507 70.2381 27.1009 70.2381 26.8927V25.6271Z" fill="white"/>
<path d="M73.6103 19.6069H74.8843V29.857H73.6103V19.6069Z" fill="white"/>
<path d="M77.7237 26.593C77.7487 28.3082 78.8478 29.016 80.1218 29.016C81.0294 29.016 81.579 28.8578 82.0536 28.6496L82.2701 29.5572C81.8205 29.7571 81.0544 29.9902 79.947 29.9902C77.7987 29.9902 76.5081 28.5747 76.5081 26.4681C76.5081 24.3614 77.7487 22.7044 79.7888 22.7044C82.0703 22.7044 82.6781 24.7111 82.6781 25.9934C82.6781 26.2516 82.6531 26.4597 82.6365 26.5846H77.7237V26.593ZM81.4541 25.6853C81.4707 24.8777 81.121 23.6203 79.6972 23.6203C78.4149 23.6203 77.8486 24.8027 77.7487 25.6853H81.4541Z" fill="white"/>
<path d="M87.366 20.2397C87.9738 20.1398 88.7648 20.0482 89.7807 20.0482C91.0214 20.0482 91.929 20.3397 92.5118 20.8559C93.0447 21.3139 93.3612 22.0216 93.3612 22.8959C93.3612 23.7786 93.103 24.4697 92.6118 24.9776C91.9456 25.6854 90.8632 26.0434 89.6391 26.0434C89.2644 26.0434 88.9147 26.0268 88.6316 25.9601V29.857H87.3743V20.2397H87.366ZM88.6233 24.9276C88.8981 25.0026 89.2395 25.0276 89.6641 25.0276C91.1796 25.0276 92.1038 24.2948 92.1038 22.9459C92.1038 21.6636 91.1962 21.0391 89.8057 21.0391C89.2561 21.0391 88.8398 21.0807 88.6233 21.139V24.9276Z" fill="white"/>
<path d="M94.9349 19.6069H96.2089V29.857H94.9349V19.6069Z" fill="white"/>
<path d="M102.221 29.857L102.121 28.9744H102.079C101.688 29.5239 100.938 30.0152 99.9392 30.0152C98.5237 30.0152 97.7993 29.016 97.7993 28.0085C97.7993 26.3182 99.2981 25.3939 102.004 25.4106V25.269C102.004 24.6945 101.846 23.6537 100.414 23.6537C99.7643 23.6537 99.0816 23.8535 98.5986 24.1699L98.3072 23.3372C98.8817 22.9625 99.7227 22.7211 100.605 22.7211C102.745 22.7211 103.262 24.1782 103.262 25.5771V28.1917C103.262 28.7995 103.287 29.3907 103.378 29.8653H102.221V29.857ZM102.029 26.2932C100.639 26.2682 99.0732 26.5097 99.0732 27.8669C99.0732 28.6913 99.6228 29.0826 100.272 29.0826C101.18 29.0826 101.763 28.4998 101.963 27.9086C102.004 27.7753 102.038 27.6338 102.038 27.5006V26.2932H102.029Z" fill="white"/>
<path d="M105.66 22.8709L107.192 27.001C107.35 27.4673 107.525 28.0085 107.641 28.4331H107.666C107.8 28.0168 107.941 27.4839 108.116 26.976L109.498 22.8793H110.839L108.932 27.8586C108.024 30.2567 107.4 31.4807 106.534 32.2301C105.918 32.7797 105.293 32.9961 104.977 33.0544L104.66 31.9886C104.977 31.8887 105.393 31.6805 105.776 31.3641C106.126 31.0893 106.559 30.5981 106.842 29.9486C106.9 29.8154 106.942 29.7154 106.942 29.6405C106.942 29.5656 106.917 29.4656 106.859 29.3074L104.277 22.8709H105.66Z" fill="white"/>
<path d="M32.3352 20.1565L27.4808 17.3504L23.484 21.2139L27.1311 24.7444L32.3269 21.7468C32.61 21.5803 32.7849 21.2889 32.7849 20.9558C32.7932 20.6144 32.6183 20.323 32.3352 20.1565Z" fill="#FFCE00"/>
<path d="M26.6564 16.8758L21.3107 13.7949L9.60339 7.79138L22.8261 20.5811L26.6564 16.8758Z" fill="#00F076"/>
<path d="M9.79492 34.445L21.3273 28.0918L26.3067 25.2191L22.8261 21.8551L9.79492 34.445Z" fill="#F83547"/>
<path d="M8.82073 8.30762L8.80408 34.1286L22.1684 21.2139L8.82073 8.30762Z" fill="#00CCFF"/>
</svg>
