<svg width="110" height="87" viewBox="0 0 110 87" fill="none" xmlns="http://www.w3.org/2000/svg">
<path d="M108.283 2H2.1145V60.3609H108.283V2Z" stroke="black" stroke-width="2.5" stroke-miterlimit="10"/>
<path d="M57.3982 32.9376L59.7599 33.0666C61.3344 30.1956 62.594 27.2599 63.5387 24.2276L64.7983 24.776C65.1132 25.0341 65.0502 25.1954 64.6408 25.2921C63.7276 27.9374 62.5625 30.5182 61.177 33.0666L67.0026 33.2602C66.3098 32.1311 65.743 31.2924 65.3336 30.7762L66.4987 30.0665C67.6638 31.5827 68.7345 33.3247 69.7421 35.3248L68.4511 36.099L67.6638 34.5506H58.2169C57.965 34.9054 57.8076 34.9054 57.7131 34.5183L57.3982 32.9376Z" fill="black"/>
<path d="M48.2881 27.4606L42.6521 34.657L43.3398 35.2223L48.9758 28.0259L48.2881 27.4606Z" fill="black"/>
<path d="M41.8741 28.6795H32.5532C33.0885 27.1311 33.2144 25.9375 33.2144 25.8407L31.64 25.6472C31.64 25.6794 31.1676 29.5505 28.6799 32.3894L29.845 33.4539C30.7268 32.4216 31.388 31.3248 31.8919 30.2602H36.6783C36.5838 31.7442 36.017 35.1637 32.6476 38.0025L33.6553 39.2283C37.5285 35.9379 38.1898 32.0022 38.2528 30.2602H41.8426L41.8741 28.6795Z" fill="black"/>
<path d="M39.6504 24.7151L38.8965 25.4001L40.8187 27.6206L41.5726 26.9357L39.6504 24.7151Z" fill="black"/>
<path d="M87.9749 20.1634L87.3766 8.51779L83.2514 15.3245C83.5033 20.1634 83.7238 24.1636 83.9127 27.2605C84.1016 30.3574 84.1961 33.3575 84.2276 36.2931C82.5586 37.0351 80.8897 37.6157 79.2522 37.9706C78.1501 38.2287 76.7016 38.519 74.8752 38.8416L72.9858 11.5824L68.8606 18.6795L70.2462 36.5512C68.4828 37.4867 65.9006 38.2287 62.5312 38.7448C59.1618 39.261 56.4852 39.519 54.5013 39.4868C54.1549 39.4868 53.84 39.4545 53.5251 39.4545L55.509 36.2931C55.9499 35.6157 56.3592 34.7124 56.7056 33.6156C56.8001 33.2607 56.8631 32.9059 56.8631 32.6155C56.8631 31.9381 56.6111 31.3252 56.0758 30.809C55.4775 30.2283 54.3754 29.9057 52.8324 29.8735H52.297C50.9745 29.8735 49.9038 30.0025 49.0851 30.2283C48.7702 30.4864 47.8255 31.551 46.2825 33.4543C44.8655 35.164 44.1727 36.3576 44.1727 36.9705C44.1727 37.0351 44.1727 37.0673 44.2042 37.1318L45.3063 40.9384L43.7003 41.2288L36.7096 42.4224C37.056 41.4869 37.3709 40.6481 37.5913 39.9062C37.6858 39.5836 37.7488 39.261 37.7488 38.9061C37.7488 38.7125 37.7488 38.6158 37.6543 38.5835C37.5913 38.5835 37.4969 38.648 37.4339 38.7771C36.9301 40.0029 36.1428 40.9707 35.0407 41.5836C33.6551 42.3901 30.3487 43.0676 25.1214 43.6805L25.2789 43.3902L24.2712 28.1637C24.2397 25.6475 23.5469 24.0991 22.1614 23.5507C21.8465 23.4216 21.5001 23.3571 21.1222 23.3571C19.9886 23.3571 18.729 24.0345 17.3435 25.3572C16.8396 25.8411 16.0524 26.8411 15.0447 28.3573C14.0055 29.8735 13.0609 31.4865 12.1791 33.2607C11.2974 35.035 10.6676 36.7447 10.2898 38.3577C10.1638 38.9061 10.1008 39.39 10.1008 39.8416C10.1008 40.7126 10.3527 41.4223 10.8566 41.9385C11.9587 43.0353 13.1553 43.5837 14.4464 43.5837C14.9188 43.5837 15.3911 43.5192 15.8949 43.3579C17.6898 42.8095 19.2013 41.8417 20.3665 40.4223L21.0278 50.5195L20.9018 51.3582C20.9648 51.3582 21.0278 51.3582 21.0907 51.326V51.3582V51.326C22.6652 51.1647 24.5861 50.8743 26.8534 50.4549C29.1206 50.0356 30.8526 49.5517 32.1436 49.0355L31.9547 50.1001C34.4109 49.6807 36.993 49.1323 39.6697 48.4871C42.3463 47.8097 44.2987 47.229 45.5268 46.7129C45.9676 46.5838 46.5344 46.3258 47.1642 45.9709C47.1957 46.0032 47.2272 46.0354 47.2587 46.0677C47.8885 46.4871 48.6127 46.7451 49.4 46.8419C53.0528 47.229 56.926 46.9387 60.9882 46.0354C65.0819 45.1322 68.2308 42.9708 70.4666 39.5836L70.9075 45.4225L70.7185 46.5838L70.6241 46.7774V46.8096C70.75 46.7774 70.876 46.7451 71.0019 46.7129V46.8096L71.0649 46.6806C76.0718 45.3902 79.2207 44.4225 80.4803 43.7128C84.2591 41.6482 86.6838 38.4222 87.723 34.0349C87.9434 33.2285 88.1009 32.2929 88.2583 31.2284C88.3843 30.1638 88.4157 29.0025 88.3528 27.8089L87.9749 20.1634ZM19.5477 35.906C18.9494 36.0673 18.3511 36.1641 17.7843 36.1641C17.249 36.1641 16.7137 36.0995 16.1783 35.9382C15.0762 35.6156 14.3519 35.035 13.9426 34.2285C13.7851 33.9382 13.6907 33.6801 13.6907 33.422C13.6907 33.1317 13.7851 32.8736 14.0056 32.6155C14.4464 32.0671 15.0132 31.4865 15.706 30.938C16.1469 30.5509 16.6507 30.3896 17.186 30.3896C17.4694 30.3896 17.7843 30.4542 18.1307 30.5509C18.9179 30.8413 19.4218 31.5832 19.5477 32.8091C19.6422 33.5188 19.6737 34.164 19.6737 34.7447C19.6422 35.1318 19.6107 35.5511 19.5477 35.906Z" fill="black"/>
<path d="M97.5795 11.7132L93.4229 18.4876L95.0288 43.037L99.154 36.2625L97.5795 11.7132Z" fill="black"/>
<path d="M6.00687 70.6145V82.9376H4.21195V70.6145H1V68.7758H9.21882V70.6145H6.00687Z" fill="black" stroke="black" stroke-width="0.2" stroke-miterlimit="10"/>
<path d="M22.6661 81.0018C21.249 82.3889 19.6116 83.0986 17.7852 83.0986C15.8328 83.0986 14.1638 82.3889 12.8098 81.0018C11.4242 79.5824 10.7629 77.9049 10.7629 75.9048C10.7629 73.9047 11.4557 72.195 12.8098 70.8078C14.1953 69.3884 15.8328 68.6787 17.7852 68.6787C19.6116 68.6787 21.3435 69.4529 22.981 70.9691L21.6584 72.2272C20.4303 71.0982 19.1392 70.5498 17.8166 70.5498C16.3681 70.5498 15.14 71.0659 14.1009 72.1305C13.0617 73.195 12.5579 74.4531 12.5579 75.9371C12.5579 77.421 13.0617 78.7114 14.1009 79.7437C15.14 80.8082 16.3681 81.3244 17.8166 81.3244C19.0447 81.3244 20.0839 81.0018 20.9026 80.3244V76.0661H22.6975V81.0018H22.6661Z" fill="black" stroke="black" stroke-width="0.2" stroke-miterlimit="10"/>
<path d="M34.8825 68.8078L39.8893 82.9374H37.9999L36.2365 77.9372H32.5837L30.8203 82.9374H28.8994L33.9063 68.8078H34.8825ZM35.5752 76.0984L34.3786 72.7757L33.2135 76.0984H35.5752Z" fill="black" stroke="black" stroke-width="0.2" stroke-miterlimit="10"/>
<path d="M48.8656 79.8096L50.6606 80.4547C50.2197 81.0677 49.9048 81.4871 49.7159 81.6806C48.7397 82.6806 47.6061 83.1645 46.252 83.1645C44.8979 83.1645 43.7328 82.6806 42.7881 81.6806C41.8119 80.6806 41.3396 79.5192 41.3396 78.1321C41.3396 76.7449 41.8119 75.5513 42.7881 74.5836C43.7643 73.5835 44.8979 73.0996 46.252 73.0996C47.6061 73.0996 48.7712 73.5835 49.7159 74.5836C49.9048 74.7771 50.2197 75.1965 50.6606 75.8094L48.8656 76.4868C48.6452 76.1965 48.4878 76.0029 48.3933 75.9384C47.795 75.3255 47.0707 75.0352 46.2205 75.0352C45.3703 75.0352 44.646 75.3578 44.0477 75.9707C43.4494 76.5836 43.1345 77.3256 43.1345 78.1966C43.1345 79.0676 43.4494 79.8096 44.0477 80.4225C44.646 81.0354 45.3703 81.358 46.2205 81.358C47.0707 81.358 47.795 81.0677 48.3933 80.4547C48.4878 80.2934 48.6137 80.0999 48.8656 79.8096Z" fill="black" stroke="black" stroke-width="0.2" stroke-miterlimit="10"/>
<path d="M60.4217 74.4868V73.8416H62.2167V82.9387H60.4217V81.8096C59.5715 82.7129 58.5638 83.1645 57.4302 83.1645C56.0762 83.1645 54.911 82.6806 53.9663 81.6806C53.0216 80.7128 52.5178 79.5192 52.5178 78.1321C52.5178 76.7449 52.9902 75.5513 53.9663 74.5836C54.911 73.6158 56.0762 73.0996 57.4302 73.0996C58.5323 73.1319 59.54 73.5835 60.4217 74.4868ZM60.4217 78.8095V77.4546C60.3273 76.874 60.0439 76.3578 59.603 75.9062C59.0047 75.2932 58.2804 75.0029 57.4302 75.0029C56.58 75.0029 55.8557 75.3255 55.2574 75.9062C54.6591 76.5191 54.3442 77.2611 54.3442 78.1321C54.3442 79.0031 54.6591 79.745 55.2574 80.358C55.8557 80.9709 56.58 81.2935 57.4302 81.2935C58.2804 81.2935 59.0047 81.0032 59.603 80.3902C60.0439 79.9063 60.2958 79.3902 60.4217 78.8095Z" fill="black" stroke="black" stroke-width="0.2" stroke-miterlimit="10"/>
<path d="M72.5128 74.4534V68.7758H74.3077V82.9054H72.5128V81.7763C71.6626 82.6795 70.6549 83.1312 69.4898 83.1312C68.1357 83.1312 66.9706 82.6473 66.0259 81.6472C65.0812 80.6472 64.5774 79.4859 64.5774 78.0987C64.5774 76.7115 65.0497 75.518 66.0259 74.5502C66.9706 73.5501 68.1357 73.0662 69.4898 73.0662C70.6549 73.0985 71.6311 73.5501 72.5128 74.4534ZM72.5128 78.8084V77.4535C72.4183 76.8728 72.1349 76.3567 71.6626 75.9051C71.0643 75.2921 70.34 74.9695 69.4898 74.9695C68.6396 74.9695 67.9153 75.2921 67.317 75.9051C66.7187 76.518 66.4038 77.26 66.4038 78.131C66.4038 79.002 66.7187 79.7439 67.317 80.3569C67.9153 80.9698 68.6396 81.2601 69.4898 81.2601C70.34 81.2601 71.0643 80.9698 71.6626 80.3569C72.1349 79.9052 72.3868 79.3891 72.5128 78.8084Z" fill="black" stroke="black" stroke-width="0.2" stroke-miterlimit="10"/>
<path d="M79.8494 80.8729C80.1328 81.1309 80.6996 81.2922 81.4869 81.2922C82.3371 81.2922 83.0613 81.0019 83.6596 80.389C83.7226 80.2922 83.8801 80.1309 84.132 79.8406L85.9269 80.4857C85.486 81.0987 85.1712 81.518 84.9822 81.7116C84.006 82.7116 82.8724 83.1955 81.5183 83.1955C80.1643 83.1955 78.9992 82.7116 78.0545 81.7116C77.0783 80.7116 76.606 79.5502 76.606 78.1631C76.606 76.7759 77.0783 75.5823 78.0545 74.6145C79.0307 73.6145 80.1643 73.1306 81.5183 73.1306C82.6835 73.1306 83.6911 73.4855 84.5729 74.1952C84.7303 74.3242 84.8563 74.4532 84.9822 74.5823C85.0452 74.6468 85.2026 74.8403 85.486 75.1307L84.6043 76.0662L79.8494 80.8729ZM82.8409 75.2275C82.652 75.0662 82.1796 75.0017 81.4869 75.0017C80.6366 75.0017 79.9124 75.3242 79.3141 75.9372C78.7158 76.5501 78.4009 77.2921 78.4009 78.1631C78.4009 78.8728 78.4638 79.3244 78.6213 79.5502L82.8409 75.2275Z" fill="black" stroke="black" stroke-width="0.2" stroke-miterlimit="10"/>
<path d="M87.9756 73.8406H89.865V74.6794C90.2114 73.7761 90.9356 73.3567 91.9433 73.3567C92.9824 73.3567 93.5493 73.8729 93.6752 74.8729C93.9586 73.8729 94.7774 73.3567 96.1314 73.3567C97.454 73.3567 98.1153 74.131 98.1153 75.7117V82.9378H96.2259V76.5504C96.2259 75.6471 95.848 75.1955 95.1238 75.1955C94.8089 75.1955 94.5569 75.2923 94.3365 75.5181C94.1161 75.7439 93.9901 76.4536 93.9901 77.6472V82.9378H92.1007V76.5504C92.1007 75.6471 91.7229 75.1955 90.9671 75.1955C90.6522 75.1955 90.4003 75.2923 90.1799 75.5181C89.9909 75.7117 89.865 76.1955 89.865 76.9698V82.9378H87.9756V73.8406Z" fill="black" stroke="black" stroke-width="0.2" stroke-miterlimit="10"/>
<path d="M102.996 86.0037H101.107L103.469 80.9067L100.162 73.8419H102.178L104.445 78.8099L106.712 73.8419H108.728L102.996 86.0037Z" fill="black" stroke="black" stroke-width="0.2" stroke-miterlimit="10"/>
</svg>
